<svg xmlns="http://www.w3.org/2000/svg" style="display:none">
  <defs>
    <symbol id="icon-code" viewBox="0 0 24 24"><path d="M16 18l6-6-6-6M8 6l-6 6 6 6"/></symbol>
    <symbol id="icon-shield" viewBox="0 0 24 24"><path d="M12 22s8-4 8-10V5l-8-3-8 3v7c0 6 8 10 8 10z"/></symbol>
    <symbol id="icon-cube" viewBox="0 0 24 24"><path d="M21 16V8a2 2 0 00-1-1.73l-7-4a2 2 0 00-2 0l-7 4A2 2 0 003 8v8a2 2 0 001 1.73l7 4a2 2 0 002 0l7-4A2 2 0 0021 16z"/><path d="M3.27 6.96L12 12.01l8.73-5.05M12 22.08V12"/></symbol>
    <symbol id="icon-spark" viewBox="0 0 24 24"><path d="M12 2v6m0 8v6M2 12h6m8 0h6M4.93 4.93l4.24 4.24m5.66 5.66l4.24 4.24M4.93 19.07l4.24-4.24m5.66-5.66l4.24-4.24"/></symbol>
    <symbol id="icon-layers" viewBox="0 0 24 24"><path d="M12 2L2 7l10 5 10-5-10-5zM2 17l10 5 10-5M2 12l10 5 10-5"/></symbol>
    <symbol id="icon-rocket" viewBox="0 0 24 24"><path d="M4.5 16.5c-1.5 1.26-2 5-2 5s3.74-.5 5-2c.71-.84.7-2.13-.09-2.91a2.18 2.18 0 00-2.91-.09zM12 15l-3-3a22 22 0 012-3.95A12.88 12.88 0 0122 2c0 2.72-.78 7.5-6 11a22.35 22.35 0 01-4 2zM9 12H4s.55-3.03 2-4c1.62-1.08 5 0 5 0M12 15v5s3.03-.55 4-2c1.08-1.62 0-5 0-5"/></symbol>
    <symbol id="icon-music" viewBox="0 0 24 24"><path d="M9 18V5l12-2v13M9 18a3 3 0 11-6 0 3 3 0 016 0zm12-2a3 3 0 11-6 0 3 3 0 016 0z"/></symbol>
    <symbol id="icon-image" viewBox="0 0 24 24"><rect x="3" y="3" width="18" height="18" rx="2" ry="2"/><circle cx="8.5" cy="8.5" r="1.5"/><path d="M21 15l-5-5L5 21"/></symbol>
    <symbol id="icon-eye" viewBox="0 0 24 24"><path d="M1 12s4-8 11-8 11 8 11 8-4 8-11 8-11-8-11-8z"/><circle cx="12" cy="12" r="3"/></symbol>
    <symbol id="icon-lock" viewBox="0 0 24 24"><rect x="3" y="11" width="18" height="11" rx="2" ry="2"/><path d="M7 11V7a5 5 0 0110 0v4"/></symbol>
    <symbol id="icon-zap" viewBox="0 0 24 24"><path d="M13 2L3 14h9l-1 8 10-12h-9l1-8z"/></symbol>
    <symbol id="icon-target" viewBox="0 0 24 24"><circle cx="12" cy="12" r="10"/><circle cx="12" cy="12" r="6"/><circle cx="12" cy="12" r="2"/></symbol>
    <symbol id="icon-globe" viewBox="0 0 24 24"><circle cx="12" cy="12" r="10"/><path d="M2 12h20M12 2a15.3 15.3 0 014 10 15.3 15.3 0 01-4 10 15.3 15.3 0 01-4-10 15.3 15.3 0 014-10z"/></symbol>
    <symbol id="icon-map" viewBox="0 0 24 24"><path d="M1 6v16l7-4 8 4 7-4V2l-7 4-8-4-7 4zM8 2v16M16 6v16"/></symbol>
    <symbol id="icon-archive" viewBox="0 0 24 24"><path d="M21 8v13H3V8M1 3h22v5H1zM10 12h4"/></symbol>
    <symbol id="icon-edit" viewBox="0 0 24 24"><path d="M11 4H4a2 2 0 00-2 2v14a2 2 0 002 2h14a2 2 0 002-2v-7M18.5 2.5a2.121 2.121 0 013 3L12 15l-4 1 1-4 9.5-9.5z"/></symbol>
    <symbol id="icon-heart" viewBox="0 0 24 24"><path d="M20.84 4.61a5.5 5.5 0 00-7.78 0L12 5.67l-1.06-1.06a5.5 5.5 0 00-7.78 7.78l1.06 1.06L12 21.23l7.78-7.78 1.06-1.06a5.5 5.5 0 000-7.78z"/></symbol>
    <symbol id="icon-calendar" viewBox="0 0 24 24"><rect x="3" y="4" width="18" height="18" rx="2" ry="2"/><path d="M16 2v4M8 2v4M3 10h18"/></symbol>
    <symbol id="icon-camera" viewBox="0 0 24 24"><path d="M23 19a2 2 0 01-2 2H3a2 2 0 01-2-2V8a2 2 0 012-2h4l2-3h6l2 3h4a2 2 0 012 2z"/><circle cx="12" cy="13" r="4"/></symbol>
    <symbol id="icon-mail" viewBox="0 0 24 24"><path d="M4 4h16c1.1 0 2 .9 2 2v12c0 1.1-.9 2-2 2H4c-1.1 0-2-.9-2-2V6c0-1.1.9-2 2-2z"/><path d="M22 6l-10 7L2 6"/></symbol>
    <symbol id="icon-phone" viewBox="0 0 24 24"><path d="M22 16.92v3a2 2 0 01-2.18 2 19.79 19.79 0 01-8.63-3.07 19.5 19.5 0 01-6-6 19.79 19.79 0 01-3.07-8.67A2 2 0 014.11 2h3a2 2 0 012 1.72 12.84 12.84 0 00.7 2.81 2 2 0 01-.45 2.11L8.09 9.91a16 16 0 006 6l1.27-1.27a2 2 0 012.11-.45 12.84 12.84 0 002.81.7A2 2 0 0122 16.92z"/></symbol>
    <symbol id="icon-pin" viewBox="0 0 24 24"><path d="M21 10c0 7-9 13-9 13s-9-6-9-13a9 9 0 0118 0z"/><circle cx="12" cy="10" r="3"/></symbol>
    <symbol id="icon-send" viewBox="0 0 24 24"><path d="M22 2L11 13M22 2l-7 20-4-9-9-4 20-7z"/></symbol>
    <symbol id="icon-arrow" viewBox="0 0 24 24"><path d="M5 12h14M12 5l7 7-7 7"/></symbol>
    <symbol id="icon-check" viewBox="0 0 24 24"><path d="M20 6L9 17l-5-5"/></symbol>
    <symbol id="icon-chevron" viewBox="0 0 24 24"><path d="M6 9l6 6 6-6"/></symbol>
    <symbol id="icon-apple" viewBox="0 0 24 24"><path d="M18 8a4 4 0 00-3-4 4 4 0 00-3 1 4 4 0 00-3-1 4 4 0 00-3 4 8 8 0 001 9 5 5 0 003 2 3 3 0 002-1 3 3 0 012-1 3 3 0 012 1 3 3 0 002 1 5 5 0 003-2 8 8 0 001-9zM12 2a4 4 0 00-3 2"/></symbol>
    <symbol id="icon-android" viewBox="0 0 24 24"><path d="M5 16V8a7 7 0 0114 0v8M5 16h14M5 16v3M19 16v3M9 5l-2-3M15 5l2-3M9 11h.01M15 11h.01"/></symbol>
    <symbol id="icon-cloud" viewBox="0 0 24 24"><path d="M18 10h-1.26A8 8 0 109 20h9a5 5 0 000-10z"/></symbol>
    <symbol id="icon-database" viewBox="0 0 24 24"><ellipse cx="12" cy="5" rx="9" ry="3"/><path d="M21 12c0 1.66-4 3-9 3s-9-1.34-9-3M3 5v14c0 1.66 4 3 9 3s9-1.34 9-3V5"/></symbol>
    <symbol id="icon-cpu" viewBox="0 0 24 24"><rect x="4" y="4" width="16" height="16" rx="2" ry="2"/><rect x="9" y="9" width="6" height="6"/><path d="M9 1v3M15 1v3M9 20v3M15 20v3M20 9h3M20 14h3M1 9h3M1 14h3"/></symbol>
    <symbol id="icon-terminal" viewBox="0 0 24 24"><path d="M4 17l6-6-6-6M12 19h8"/></symbol>
    <symbol id="icon-book" viewBox="0 0 24 24"><path d="M4 19.5A2.5 2.5 0 016.5 17H20M6.5 2H20v20H6.5A2.5 2.5 0 014 19.5v-15A2.5 2.5 0 016.5 2z"/></symbol>
    <symbol id="icon-file" viewBox="0 0 24 24"><path d="M14 2H6a2 2 0 00-2 2v16a2 2 0 002 2h12a2 2 0 002-2V8zM14 2v6h6M16 13H8M16 17H8M10 9H8"/></symbol>
    <symbol id="icon-users" viewBox="0 0 24 24"><path d="M17 21v-2a4 4 0 00-4-4H5a4 4 0 00-4 4v2M9 11a4 4 0 100-8 4 4 0 000 8zM23 21v-2a4 4 0 00-3-3.87M16 3.13a4 4 0 010 7.75"/></symbol>
    <symbol id="icon-award" viewBox="0 0 24 24"><circle cx="12" cy="8" r="7"/><path d="M8.21 13.89L7 23l5-3 5 3-1.21-9.12"/></symbol>
    <symbol id="icon-twitter" viewBox="0 0 24 24"><path d="M23 3a10.9 10.9 0 01-3.14 1.53 4.48 4.48 0 00-7.86 3v1A10.66 10.66 0 013 4s-4 9 5 13a11.64 11.64 0 01-7 2c9 5 20 0 20-11.5a4.5 4.5 0 00-.08-.83A7.72 7.72 0 0023 3z"/></symbol>
    <symbol id="icon-linkedin" viewBox="0 0 24 24"><path d="M16 8a6 6 0 016 6v7h-4v-7a2 2 0 00-4 0v7h-4v-7a6 6 0 016-6zM2 9h4v12H2zM4 6a2 2 0 100-4 2 2 0 000 4z"/></symbol>
    <symbol id="icon-github" viewBox="0 0 24 24"><path d="M9 19c-5 1.5-5-2.5-7-3m14 6v-3.87a3.37 3.37 0 00-.94-2.61c3.14-.35 6.44-1.54 6.44-7A5.44 5.44 0 0020 4.77 5.07 5.07 0 0019.91 1S18.73.65 16 2.48a13.38 13.38 0 00-7 0C6.27.65 5.09 1 5.09 1A5.07 5.07 0 005 4.77a5.44 5.44 0 00-1.5 3.78c0 5.42 3.3 6.61 6.44 7A3.37 3.37 0 009 18.13V22"/></symbol>
    <symbol id="icon-rss" viewBox="0 0 24 24"><path d="M4 11a9 9 0 019 9M4 4a16 16 0 0116 16"/><circle cx="5" cy="19" r="1"/></symbol>
    <symbol id="icon-bell" viewBox="0 0 24 24"><path d="M18 8A6 6 0 006 8c0 7-3 9-3 9h18s-3-2-3-9M13.73 21a2 2 0 01-3.46 0"/></symbol>
    <symbol id="icon-flask" viewBox="0 0 24 24"><path d="M9 2h6M10 2v6L4 18a3 3 0 003 4h10a3 3 0 003-4l-6-10V2"/></symbol>
    <symbol id="icon-infinity" viewBox="0 0 24 24"><path d="M18.178 8c5.096 0 5.096 8 0 8-5.095 0-7.133-8-12.739-8-4.585 0-4.585 8 0 8 5.606 0 7.644-8 12.739-8z"/></symbol>
    <symbol id="icon-bars" viewBox="0 0 24 24"><path d="M3 12h18M3 6h18M3 18h18"/></symbol>
    <symbol id="icon-x" viewBox="0 0 24 24"><path d="M18 6L6 18M6 6l12 12"/></symbol>
    <symbol id="icon-search" viewBox="0 0 24 24"><circle cx="11" cy="11" r="8"/><path d="M21 21l-4.35-4.35"/></symbol>
    <symbol id="icon-shield-check" viewBox="0 0 24 24"><path d="M12 22s8-4 8-10V5l-8-3-8 3v7c0 6 8 10 8 10z"/><path d="M9 12l2 2 4-4"/></symbol>
    <symbol id="icon-server" viewBox="0 0 24 24"><rect x="2" y="2" width="20" height="8" rx="2" ry="2"/><rect x="2" y="14" width="20" height="8" rx="2" ry="2"/><path d="M6 6h.01M6 18h.01"/></symbol>
  </defs>
</svg>